<?xml version="1.0" encoding="UTF-8"?>
<svg xmlns="http://www.w3.org/2000/svg" width="1000" height="260" viewBox="0 0 1000 260" role="img" aria-labelledby="title description">
  <title id="title">Orion Van Gogh — Mathematics, Artificial Intelligence, and Systems</title>
  <desc id="description">A midnight-blue research banner with mathematical notation and a small agent runtime graph.</desc>
  <defs>
    <pattern id="grid" width="24" height="24" patternUnits="userSpaceOnUse">
      <path d="M24 0H0V24" fill="none" stroke="#30363d" stroke-width="1" opacity="0.38"/>
    </pattern>
    <linearGradient id="wash" x1="0" x2="1">
      <stop offset="0" stop-color="#0d1117"/>
      <stop offset="0.64" stop-color="#101720"/>
      <stop offset="1" stop-color="#121827"/>
    </linearGradient>
  </defs>
  <rect x="1" y="1" width="998" height="258" rx="16" fill="url(#wash)" stroke="#30363d" stroke-width="2"/>
  <rect x="594" y="1" width="405" height="258" rx="15" fill="url(#grid)"/>
  <path d="M1 16A15 15 0 0 1 16 1H984A15 15 0 0 1 999 16V20H1Z" fill="#58a6ff" opacity="0.72"/>

  <text x="56" y="54" fill="#58a6ff" font-family="ui-monospace, SFMono-Regular, Menlo, Monaco, Consolas, monospace" font-size="11" font-weight="600" letter-spacing="2.2">RESEARCH / ENGINEERING PROFILE</text>
  <text x="56" y="102" fill="#f0f6fc" font-family="-apple-system, BlinkMacSystemFont, 'Segoe UI', Helvetica, Arial, sans-serif" font-size="38" font-weight="650" letter-spacing="1.2">ORION VAN GOGH</text>
  <text x="58" y="135" fill="#c9d1d9" font-family="-apple-system, BlinkMacSystemFont, 'Segoe UI', Helvetica, Arial, sans-serif" font-size="17">Mathematics · Artificial Intelligence · Systems</text>
  <text x="58" y="164" fill="#8b949e" font-family="ui-monospace, SFMono-Regular, Menlo, Monaco, Consolas, monospace" font-size="12">Structures behind mathematics and intelligent systems.</text>

  <g font-family="ui-monospace, SFMono-Regular, Menlo, Monaco, Consolas, monospace" font-size="10" font-weight="600" letter-spacing="1.2">
    <rect x="56" y="192" width="82" height="28" rx="14" fill="#161b22" stroke="#30363d"/><text x="97" y="210" text-anchor="middle" fill="#58a6ff">ALGEBRA</text>
    <rect x="148" y="192" width="86" height="28" rx="14" fill="#161b22" stroke="#30363d"/><text x="191" y="210" text-anchor="middle" fill="#39c5cf">TOPOLOGY</text>
    <rect x="244" y="192" width="102" height="28" rx="14" fill="#161b22" stroke="#30363d"/><text x="295" y="210" text-anchor="middle" fill="#a371f7">AI AGENTS</text>
    <rect x="356" y="192" width="62" height="28" rx="14" fill="#161b22" stroke="#30363d"/><text x="387" y="210" text-anchor="middle" fill="#f0f6fc">RUST</text>
  </g>

  <g fill="none" stroke="#58a6ff" stroke-width="1.2" opacity="0.42">
    <circle cx="812" cy="126" r="79"/>
    <path d="M733 126c23-44 135-44 158 0M733 126c23 44 135 44 158 0M812 47c-33 26-33 132 0 158M812 47c33 26 33 132 0 158"/>
    <path d="M681 78C734 36 894 35 943 86M666 187c58 40 211 43 279-4" stroke="#a371f7"/>
  </g>
  <g font-family="ui-monospace, SFMono-Regular, Menlo, Monaco, Consolas, monospace" fill="#8b949e" font-size="12">
    <text x="631" y="62">π₁(X)</text><text x="902" y="57">G / H</text><text x="905" y="216">Hom(A,B)</text><text x="635" y="225">f : X → Y</text>
  </g>

  <g stroke="#39c5cf" stroke-width="1.5" fill="#101720">
    <path d="M735 126L808 98L876 137" opacity="0.7"/>
    <circle cx="735" cy="126" r="21"/><circle cx="808" cy="98" r="21"/><circle cx="876" cy="137" r="21"/>
  </g>
  <g fill="#f0f6fc" font-family="ui-monospace, SFMono-Regular, Menlo, Monaco, Consolas, monospace" font-size="9" text-anchor="middle">
    <text x="735" y="129">Router</text><text x="808" y="101">Agent</text><text x="876" y="140">Tool</text>
  </g>
  <circle cx="958" cy="36" r="3" fill="#39c5cf"/><circle cx="970" cy="36" r="3" fill="#a371f7"/><circle cx="946" cy="36" r="3" fill="#58a6ff"/>
</svg>
